# xmcd
#
# Track frame offsets: 
#        150
#        10811
#        29317
#        43243
#        58650
#        75291
#        88631
#        102831
#        112889
#        123288
#        139116
#        158220
#        174364
#        189915
#        205988
#        217143
#        229454
#        239821
#        255352
#        273337
#        302047
#
# Disc length: 4175 seconds
#
# Revision: 0
# Processed by: cddbd v1.5.2PL0 Copyright (c) Steve Scherf et al.
# Submitted via: ExactAudioCopy v0.99pb5
#
DISCID=1d104d15
DTITLE=Екатерина Болдырева - Поверь!
DYEAR=2002
DGENRE=Chanson
TTITLE0=Август
TTITLE1=Байрон
TTITLE2=В городе дождь
TTITLE3=Воскресенье
TTITLE4=Все равно
TTITLE5=Зимняя румба
TTITLE6=Комрад
TTITLE7=Кот
TTITLE8=Маятник
TTITLE9=Молодость
TTITLE10=Мост
TTITLE11=На качелях
TTITLE12=Паучок
TTITLE13=Платочек
TTITLE14=Поверь
TTITLE15=Птица
TTITLE16=Ручки
TTITLE17=Сереженька
TTITLE18=Смелые
TTITLE19=Феечка
TTITLE20=Bonus
EXTD=
EXTT0=
EXTT1=
EXTT2=
EXTT3=
EXTT4=
EXTT5=
EXTT6=
EXTT7=
EXTT8=
EXTT9=
EXTT10=
EXTT11=
EXTT12=
EXTT13=
EXTT14=
EXTT15=
EXTT16=
EXTT17=
EXTT18=
EXTT19=
EXTT20=
PLAYORDER=
